HIERARCHY
ROOT joint_Root
{
	OFFSET 0.0 0.0 0.0
	CHANNELS 6 Xposition Yposition Zposition Zrotation Xrotation Yrotation 
	JOINT Hips
	{
		OFFSET -17.1583 93.1646 452.98
		CHANNELS 6 Xposition Yposition Zposition Zrotation Xrotation Yrotation 
		JOINT Spine
		{
			OFFSET 15.7357 0.0 0.0
			CHANNELS 6 Xposition Yposition Zposition Zrotation Xrotation Yrotation 
			JOINT Chest
			{
				OFFSET 8.98455 -0.406207 0.0
				CHANNELS 6 Xposition Yposition Zposition Zrotation Xrotation Yrotation 
				JOINT Neck
				{
					OFFSET 16.3773 0.0 0.0
					CHANNELS 6 Xposition Yposition Zposition Zrotation Xrotation Yrotation 
					JOINT Head
					{
						OFFSET 6.45672 0.0 0.0
						CHANNELS 6 Xposition Yposition Zposition Zrotation Xrotation Yrotation 
						End Site
						{
							OFFSET 0.0 0.0 0.0
						}
					}
				}
				JOINT Shoulder_L
				{
					OFFSET 12.9942 -0.242716 4.98039
					CHANNELS 6 Xposition Yposition Zposition Zrotation Xrotation Yrotation 
					JOINT UpperArm_L
					{
						OFFSET 5.34809 0.0 0.0
						CHANNELS 6 Xposition Yposition Zposition Zrotation Xrotation Yrotation 
						JOINT LowerArm_L
						{
							OFFSET 24.3286 1.87007e-05 0.0
							CHANNELS 6 Xposition Yposition Zposition Zrotation Xrotation Yrotation 
							JOINT Hand_L
							{
								OFFSET 22.2916 0.0 0.0
								CHANNELS 6 Xposition Yposition Zposition Zrotation Xrotation Yrotation 
								End Site
								{
									OFFSET 0.0 0.0 0.0
								}
							}
						}
					}
				}
				JOINT Shoulder_R
				{
					OFFSET 12.9945 -0.242716 -4.98039
					CHANNELS 6 Xposition Yposition Zposition Zrotation Xrotation Yrotation 
					JOINT UpperArm_R
					{
						OFFSET -5.34813 0.0 0.0
						CHANNELS 6 Xposition Yposition Zposition Zrotation Xrotation Yrotation 
						JOINT LowerArm_R
						{
							OFFSET -24.3289 0.000322201 0.0
							CHANNELS 6 Xposition Yposition Zposition Zrotation Xrotation Yrotation 
							JOINT Hand_R
							{
								OFFSET -22.2915 -0.000108084 0.0
								CHANNELS 6 Xposition Yposition Zposition Zrotation Xrotation Yrotation 
								End Site
								{
									OFFSET 0.0 0.0 0.0
								}
							}
						}
					}
				}
			}
		}
		JOINT UpperLeg_L
		{
			OFFSET -2.19248 -6.46944 0.0
			CHANNELS 6 Xposition Yposition Zposition Zrotation Xrotation Yrotation 
			JOINT LowerLeg_L
			{
				OFFSET 39.0811 0.0 -1.23785e-05
				CHANNELS 6 Xposition Yposition Zposition Zrotation Xrotation Yrotation 
				JOINT Foot_L
				{
					OFFSET 40.9854 0.0 -1.26872e-05
					CHANNELS 6 Xposition Yposition Zposition Zrotation Xrotation Yrotation 
					JOINT Toes_L
					{
						OFFSET 11.7543 0.0 0.0
						CHANNELS 6 Xposition Yposition Zposition Zrotation Xrotation Yrotation 
						End Site
						{
							OFFSET 0.0 0.0 0.0
						}
					}
				}
			}
		}
		JOINT UpperLeg_R
		{
			OFFSET -2.19251 6.46944 0.0
			CHANNELS 6 Xposition Yposition Zposition Zrotation Xrotation Yrotation 
			JOINT LowerLeg_R
			{
				OFFSET -39.0811 -0.00228153 -0.0401928
				CHANNELS 6 Xposition Yposition Zposition Zrotation Xrotation Yrotation 
				JOINT Foot_R
				{
					OFFSET -40.9854 0.0 0.0
					CHANNELS 6 Xposition Yposition Zposition Zrotation Xrotation Yrotation 
					JOINT Toes_R
					{
						OFFSET -11.7543 0.0 0.0
						CHANNELS 6 Xposition Yposition Zposition Zrotation Xrotation Yrotation 
						End Site
						{
							OFFSET 0.0 0.0 0.0
						}
					}
				}
			}
		}
	}
}
MOTION
Frames:	9
Frame Time:	0.0333333
0.000000 0.000000 0.000000 0.000000 0.000000 -0.000000 -3.560040 92.595500 3.096840 87.560700 1.865150 3.562330 15.735700 0.000005 -0.000001 58.390900 87.058700 -55.970100 8.984550 -0.406207 -0.000000 -2.683610 -3.302740 4.765530 16.377300 -0.000001 -0.000001 7.825240 0.983216 -2.173850 6.456720 -0.000001 -0.000000 3.705160 2.264550 -0.335037 12.994200 -0.242716 4.980390 -92.789900 8.829390 -72.386000 5.348090 -0.000007 -0.000001 -74.199900 18.566700 3.171350 24.328600 0.000019 0.000005 9.521110 24.311500 -22.165400 22.291600 -0.000001 0.000005 -0.973716 5.014430 7.011030 12.994500 -0.242716 -4.980390 88.170200 5.748470 -72.309400 -5.348130 -0.000001 -0.000004 -66.524400 22.050100 -4.783840 -24.328900 0.000322 -0.000009 1.784040 7.889390 -12.792500 -22.291500 -0.000108 -0.000004 -12.006100 5.173280 3.382440 -2.192480 -6.469440 -0.000000 -170.208000 -3.289920 4.316090 39.081100 -0.000007 -0.000012 0.037712 -0.149447 14.162900 40.985400 -0.000006 -0.000013 -3.082050 13.586800 -70.126000 11.754300 -0.000000 0.000003 -0.000543 0.176307 -9.425380 -2.192510 6.469440 -0.000001 179.223000 7.289020 -174.876000 -39.081100 -0.002282 -0.040193 0.025033 -0.088280 13.810400 -40.985400 0.000008 0.000006 -3.680340 5.515110 -70.498800 -11.754300 -0.000006 -0.000006 -0.009007 0.263727 -5.860840
0.000000 0.000000 0.000000 0.000000 0.000000 -0.000000 -3.346860 92.587100 3.172670 87.575500 2.140740 3.782040 15.735700 0.000005 -0.000001 55.578700 86.818100 -53.192100 8.984550 -0.406207 -0.000000 -2.434810 -3.808490 4.693590 16.377300 -0.000001 -0.000001 8.130740 1.143630 -2.487010 6.456720 -0.000001 -0.000000 3.321550 2.719760 -1.343840 12.994200 -0.242716 4.980390 -92.809700 8.935560 -72.464800 5.348090 -0.000007 -0.000001 -73.803400 17.982300 3.144930 24.328600 0.000019 0.000005 9.687300 24.333000 -22.503800 22.291600 -0.000001 0.000005 -0.952844 5.017360 6.948410 12.994500 -0.242716 -4.980390 88.148600 5.630630 -71.765700 -5.348130 -0.000001 -0.000004 -64.675100 18.399500 -6.902960 -24.328900 0.000322 -0.000009 1.586490 7.669920 -11.729400 -22.291500 -0.000108 -0.000004 -14.203800 5.175340 3.328480 -2.192480 -6.469440 -0.000000 -170.280000 -3.456820 4.440020 39.081100 -0.000007 -0.000012 0.041619 -0.162438 14.371100 40.985400 -0.000006 -0.000013 -2.846520 14.047600 -70.233900 11.754300 -0.000000 0.000003 -0.000498 0.175625 -9.453080 -2.192510 6.469440 -0.000001 178.907000 7.654840 -174.531000 -39.081100 -0.002282 -0.040193 0.017646 -0.058629 13.719200 -40.985400 0.000008 0.000006 -4.253010 5.810870 -70.282200 -11.754300 -0.000006 -0.000006 -0.009063 0.264162 -5.843030
0.000000 0.000000 0.000000 0.000000 0.000000 -0.000000 -3.097530 92.635300 3.228640 87.540000 2.312840 3.652310 15.735700 0.000005 -0.000001 53.598700 86.714000 -51.340800 8.984550 -0.406207 -0.000000 -2.394010 -4.098920 4.431440 16.377300 -0.000001 -0.000001 8.132600 1.153420 -2.541780 6.456720 -0.000001 -0.000000 2.793890 3.069120 -2.346710 12.994200 -0.242716 4.980390 -92.833200 9.055620 -72.545100 5.348090 -0.000007 -0.000001 -73.055700 17.932700 3.056300 24.328600 0.000019 0.000005 9.919400 24.220500 -23.086900 22.291600 -0.000001 0.000005 -0.967611 5.024020 6.804270 12.994500 -0.242716 -4.980390 88.126300 5.514220 -71.199200 -5.348130 -0.000001 -0.000004 -61.807100 13.398400 -9.631220 -24.328900 0.000322 -0.000009 1.134850 6.618100 -9.758110 -22.291500 -0.000108 -0.000004 -16.877700 5.188210 3.014860 -2.192480 -6.469440 -0.000000 -170.297000 -4.093580 4.406270 39.081100 -0.000007 -0.000012 0.043210 -0.170997 14.181700 40.985400 -0.000006 -0.000013 -2.608780 14.722400 -70.156400 11.754300 -0.000000 0.000003 -0.000581 0.176895 -9.401470 -2.192510 6.469440 -0.000001 178.582000 8.078020 -174.276000 -39.081100 -0.002282 -0.040193 0.003093 0.001043 13.008100 -40.985400 0.000008 0.000006 -5.349420 6.297610 -69.479200 -11.754300 -0.000006 -0.000006 -0.008638 0.260834 -5.979060
0.000000 0.000000 0.000000 0.000000 0.000000 -0.000000 -2.830560 92.775500 3.188590 87.595400 2.389350 3.093180 15.735700 0.000005 -0.000001 52.274700 86.831500 -50.293300 8.984550 -0.406207 -0.000000 -2.683320 -4.056700 3.869190 16.377300 -0.000001 -0.000001 7.821800 0.979996 -2.559730 6.456720 -0.000001 -0.000000 2.226540 2.936850 -3.131620 12.994200 -0.242716 4.980390 -92.790100 8.940690 -72.589200 5.348090 -0.000007 -0.000001 -72.281100 17.732800 2.808710 24.328600 0.000019 0.000005 10.184200 24.188200 -23.674300 22.291600 -0.000001 0.000005 -0.797601 5.028920 6.698200 12.994500 -0.242716 -4.980390 88.191500 5.180210 -70.724500 -5.348130 -0.000001 -0.000004 -57.927800 7.979420 -12.359700 -24.328900 0.000322 -0.000009 0.789364 5.706450 -7.899050 -22.291500 -0.000108 -0.000004 -18.202100 5.167510 3.520690 -2.192480 -6.469440 -0.000000 -170.463000 -4.538210 4.346370 39.081100 -0.000007 -0.000012 0.037281 -0.160438 13.081800 40.985400 -0.000006 -0.000013 -3.061750 15.178900 -69.404400 11.754300 -0.000000 0.000003 -0.000541 0.176277 -9.426600 -2.192510 6.469440 -0.000001 178.120000 8.546190 -174.100000 -39.081100 -0.002282 -0.040193 -0.010716 0.069497 11.431000 -40.985400 0.000008 0.000006 -7.129510 7.063500 -68.010500 -11.754300 -0.000006 -0.000006 -0.008639 0.260838 -5.978880
0.000000 0.000000 0.000000 0.000000 0.000000 -0.000000 -2.561280 92.993800 3.074550 87.691600 2.364110 2.198310 15.735700 0.000005 -0.000001 51.239000 87.103600 -49.678100 8.984550 -0.406207 -0.000000 -3.198850 -3.774350 3.017920 16.377300 -0.000001 -0.000001 7.123170 0.720647 -2.626980 6.456720 -0.000001 -0.000000 1.604800 2.446740 -3.692590 12.994200 -0.242716 4.980390 -92.722600 8.703390 -72.554000 5.348090 -0.000007 -0.000001 -71.374600 16.921900 2.499990 24.328600 0.000019 0.000005 10.407800 24.066800 -24.246800 22.291600 -0.000001 0.000005 -0.588847 5.026870 6.742520 12.994500 -0.242716 -4.980390 88.354500 4.613180 -70.344600 -5.348130 -0.000001 -0.000004 -53.231400 2.084850 -14.790000 -24.328900 0.000322 -0.000009 0.715399 6.368330 -6.433610 -22.291500 -0.000108 -0.000004 -16.905400 5.161200 3.674240 -2.192480 -6.469440 -0.000000 -170.532000 -4.714980 4.117850 39.081100 -0.000007 -0.000012 0.004869 -0.024413 11.281200 40.985400 -0.000006 -0.000013 -5.960390 15.657200 -66.811500 11.754300 -0.000000 0.000003 -0.000361 0.173494 -9.539680 -2.192510 6.469440 -0.000001 177.725000 8.855450 -174.144000 -39.081100 -0.002282 -0.040193 -0.012091 0.093351 9.386160 -40.985400 0.000008 0.000006 -8.896290 7.642590 -65.917600 -11.754300 -0.000006 -0.000006 -0.007826 0.254274 -6.247020
0.000000 0.000000 0.000000 0.000000 0.000000 -0.000000 -2.368520 93.311000 2.873370 87.611800 2.255800 1.120410 15.735700 0.000005 -0.000001 49.957700 87.419400 -48.909900 8.984550 -0.406207 -0.000000 -3.785950 -3.424000 1.983700 16.377300 -0.000001 -0.000001 6.126660 0.381587 -2.719930 6.456720 -0.000001 -0.000000 0.746550 1.869770 -4.110650 12.994200 -0.242716 4.980390 -92.693100 8.570320 -72.482300 5.348090 -0.000007 -0.000001 -70.044200 15.406000 2.363540 24.328600 0.000019 0.000005 10.555400 23.376500 -25.156700 22.291600 -0.000001 0.000005 -0.207171 5.024380 6.796710 12.994500 -0.242716 -4.980390 88.611800 3.853240 -70.169500 -5.348130 -0.000001 -0.000004 -48.416200 -5.301270 -17.002100 -24.328900 0.000322 -0.000009 0.484657 6.350360 -4.378060 -22.291500 -0.000108 -0.000004 -13.952700 5.171280 3.428830 -2.192480 -6.469440 -0.000000 -170.281000 -4.998130 4.813000 39.081100 -0.000007 -0.000012 -0.002376 0.019036 7.113300 40.985400 -0.000006 -0.000013 -10.238900 15.974200 -62.573300 11.754300 -0.000000 0.000003 -0.000126 0.169713 -9.693230 -2.192510 6.469440 -0.000001 177.806000 9.128940 -175.210000 -39.081100 -0.002282 -0.040193 -0.007252 0.069126 8.712520 -40.985400 0.000008 0.000006 -9.260580 7.897550 -64.311000 -11.754300 -0.000006 -0.000006 -0.007308 0.249952 -6.423480
0.000000 0.000000 0.000000 0.000000 0.000000 -0.000000 -2.226000 93.609100 2.589350 87.473600 2.056850 -0.068056 15.735700 0.000005 -0.000001 48.712400 87.706000 -48.266200 8.984550 -0.406207 -0.000000 -4.309720 -3.071940 0.777557 16.377300 -0.000001 -0.000001 4.667270 0.096505 -3.036350 6.456720 -0.000001 -0.000000 -0.211132 1.228800 -4.407360 12.994200 -0.242716 4.980390 -92.646800 8.353260 -72.348700 5.348090 -0.000007 -0.000001 -68.565500 13.780900 2.096900 24.328600 0.000019 0.000005 10.532900 22.553300 -25.863000 22.291600 -0.000001 0.000005 0.484527 5.031200 6.648680 12.994500 -0.242716 -4.980390 89.011400 2.716620 -69.994300 -5.348130 -0.000001 -0.000004 -44.143300 -13.989700 -19.152500 -24.328900 0.000322 -0.000009 0.179587 4.736630 -2.181980 -22.291500 -0.000108 -0.000004 -9.906710 5.172050 3.411440 -2.192480 -6.469440 -0.000000 -170.252000 -5.066480 5.114110 39.081100 -0.000007 -0.000012 0.004946 -0.079291 3.569810 40.985400 -0.000006 -0.000013 -12.228300 15.515100 -59.424300 11.754300 -0.000000 0.000003 0.000417 0.160289 -10.075900 -2.192510 6.469440 -0.000001 177.987000 9.686530 -176.537000 -39.081100 -0.002282 -0.040193 -0.002466 0.040320 8.196860 -40.985400 0.000008 0.000006 -9.487820 8.399590 -62.674000 -11.754300 -0.000006 -0.000006 -0.006041 0.238877 -6.875400
0.000000 0.000000 0.000000 0.000000 0.000000 -0.000000 -2.138970 93.835000 2.316960 87.335500 1.791540 -0.942520 15.735700 0.000005 -0.000001 49.079200 87.881000 -49.330600 8.984550 -0.406207 -0.000000 -4.572490 -2.746490 -0.612812 16.377300 -0.000001 -0.000001 3.109870 -0.183732 -3.628670 6.456720 -0.000001 -0.000000 -1.285290 0.642341 -4.643900 12.994200 -0.242716 4.980390 -92.579700 8.078010 -72.222800 5.348090 -0.000007 -0.000001 -67.009500 11.619300 1.779760 24.328600 0.000019 0.000005 10.594200 22.066700 -26.467000 22.291600 -0.000001 0.000005 1.147010 5.021690 6.854580 12.994500 -0.242716 -4.980390 89.571500 1.165730 -69.816200 -5.348130 -0.000001 -0.000004 -40.997900 -24.297400 -21.392100 -24.328900 0.000322 -0.000009 0.008786 2.536210 -0.214767 -22.291500 -0.000108 -0.000004 -5.692350 5.162820 3.630510 -2.192480 -6.469440 -0.000000 -170.316000 -5.139170 4.399750 39.081100 -0.000007 -0.000012 0.005483 -0.111139 2.824830 40.985400 -0.000006 -0.000013 -12.472700 15.046700 -58.438200 11.754300 -0.000000 0.000003 0.000560 0.157599 -10.185100 -2.192510 6.469440 -0.000001 178.167000 10.116400 -177.529000 -39.081100 -0.002282 -0.040193 0.000924 0.017795 7.739250 -40.985400 0.000008 0.000006 -9.735630 9.015960 -61.399300 -11.754300 -0.000006 -0.000006 -0.005457 0.233488 -7.095140
0.000000 0.000000 0.000000 0.000000 0.000000 -0.000000 -2.158610 93.960600 2.057540 87.167400 1.652830 -1.547910 15.735700 0.000005 -0.000001 49.346000 87.931400 -50.346700 8.984550 -0.406207 -0.000000 -4.651650 -2.584540 -2.108180 16.377300 -0.000001 -0.000001 1.753940 -0.508104 -4.376110 6.456720 -0.000001 -0.000000 -2.628830 0.202836 -5.023960 12.994200 -0.242716 4.980390 -92.535000 7.911780 -72.170100 5.348090 -0.000007 -0.000001 -65.344000 8.694700 1.344900 24.328600 0.000019 0.000005 10.663500 22.108000 -26.579000 22.291600 -0.000001 0.000005 1.608540 5.009410 7.117210 12.994500 -0.242716 -4.980390 90.180900 -0.485000 -69.547200 -5.348130 -0.000001 -0.000004 -38.600700 -34.778000 -23.867100 -24.328900 0.000322 -0.000009 -0.000937 -0.658027 -0.000012 -22.291500 -0.000108 -0.000004 -1.423340 5.133390 4.325750 -2.192480 -6.469440 -0.000000 -170.250000 -5.128720 3.762710 39.081100 -0.000007 -0.000012 0.005147 -0.116598 2.527910 40.985400 -0.000006 -0.000013 -12.386600 14.713200 -58.061500 11.754300 -0.000000 0.000003 0.000573 0.157340 -10.195700 -2.192510 6.469440 -0.000001 178.487000 10.287400 -178.205000 -39.081100 -0.002282 -0.040193 0.002755 0.004565 7.338660 -40.985400 0.000008 0.000006 -9.684750 9.133480 -60.694800 -11.754300 -0.000006 -0.000006 -0.005559 0.234447 -7.056020
